{
	"asset":{
		"generator":"Khronos glTF Blender I/O v3.6.27",
		"version":"2.0"
	},
	"scene":0,
	"scenes":[
		{
			"name":"Scene",
			"nodes":[
				0
			]
		}
	],
	"nodes":[
		{
			"mesh":0,
			"name":"Circle.004",
			"translation":[
				-0.03670510649681091,
				-0.04795503616333008,
				0.2863408327102661
			]
		}
	],
	"materials":[
		{
			"doubleSided":true,
			"name":"mat",
			"pbrMetallicRoughness":{
				"baseColorFactor":[
					0.800000011920929,
					0.800000011920929,
					0.800000011920929,
					1
				],
				"metallicFactor":0,
				"roughnessFactor":0.5
			}
		}
	],
	"meshes":[
		{
			"name":"Circle.005",
			"primitives":[
				{
					"attributes":{
						"COLOR_0":0,
						"POSITION":1,
						"NORMAL":2,
						"TEXCOORD_0":3
					},
					"indices":4,
					"material":0
				}
			]
		}
	],
	"accessors":[
		{
			"bufferView":0,
			"componentType":5123,
			"count":10763,
			"normalized":true,
			"type":"VEC4"
		},
		{
			"bufferView":1,
			"componentType":5126,
			"count":10763,
			"max":[
				3.3530850410461426,
				0.5638604164123535,
				2.730067253112793
			],
			"min":[
				-3.279675006866455,
				-0.5731282234191895,
				-2.968799591064453
			],
			"type":"VEC3"
		},
		{
			"bufferView":2,
			"componentType":5126,
			"count":10763,
			"type":"VEC3"
		},
		{
			"bufferView":3,
			"componentType":5126,
			"count":10763,
			"type":"VEC2"
		},
		{
			"bufferView":4,
			"componentType":5123,
			"count":46776,
			"type":"SCALAR"
		}
	],
	"bufferViews":[
		{
			"buffer":0,
			"byteLength":86104,
			"byteOffset":0,
			"target":34962
		},
		{
			"buffer":0,
			"byteLength":129156,
			"byteOffset":86104,
			"target":34962
		},
		{
			"buffer":0,
			"byteLength":129156,
			"byteOffset":215260,
			"target":34962
		},
		{
			"buffer":0,
			"byteLength":86104,
			"byteOffset":344416,
			"target":34962
		},
		{
			"buffer":0,
			"byteLength":93552,
			"byteOffset":430520,
			"target":34963
		}
	],
	"buffers":[
		{
			"byteLength":524072,
			"uri":"data:application/octet-stream;base64,"
		}
	]
}
